# Blender v2.93.1 OBJ File: 'items.blend'
# www.blender.org
mtllib chest2.mtl
o Chest_Open_Mesh.044
v -11.825216 0.005564 4.920015
v -9.460610 0.005564 4.920015
v -11.826923 0.005564 3.343611
v -9.460610 0.005564 3.343611
v -11.826923 1.187867 4.920015
v -9.460610 1.187867 4.920015
v -11.826923 1.187867 3.343612
v -9.460610 1.187867 3.343612
v -11.544099 1.187867 4.920015
v -11.542392 1.187867 3.343612
v -11.542392 0.005564 3.343611
v -11.544099 0.005564 4.920015
v -9.745065 1.187867 4.920015
v -9.743358 1.187867 3.343612
v -9.743358 0.005564 3.343611
v -9.745065 0.005564 4.920015
v -11.544099 1.187867 4.998836
v -11.825216 1.187867 4.998836
v -11.825216 0.005564 4.998836
v -11.544099 0.005564 4.998836
v -9.743358 1.187867 3.264791
v -9.460610 1.187867 3.264791
v -9.460610 0.005564 3.264791
v -9.743358 0.005564 3.264791
v -11.542392 0.005564 3.264791
v -11.826923 0.005564 3.264791
v -11.826923 1.187867 3.264791
v -11.542392 1.187867 3.264791
v -9.745065 0.005564 4.998836
v -9.460610 0.005564 4.998836
v -9.460610 1.187867 4.998836
v -9.745065 1.187867 4.998836
v -10.861232 1.187867 4.998983
v -10.861232 0.905119 4.998983
v -10.428008 0.905119 4.998983
v -10.428008 1.187867 4.998983
v -10.861232 1.187867 4.920163
v -10.861232 0.905119 4.920163
v -10.428008 0.905119 4.920163
v -10.428008 1.187867 4.920163
v -11.384751 1.187867 4.762375
v -9.900998 1.187867 4.762375
v -9.900998 1.187867 3.501252
v -11.384751 1.187867 3.501252
v -11.384751 0.242025 4.762375
v -9.900998 0.242025 4.762375
v -9.900998 0.242025 3.501252
v -11.384751 0.242025 3.501252
v -9.460610 0.084384 4.841195
v -9.460610 0.084384 3.422432
v -9.460610 1.109047 3.422432
v -9.460610 1.109047 4.841195
v -11.826923 0.084384 3.422432
v -11.825216 0.084384 4.841195
v -11.826923 1.109047 4.841195
v -11.826923 1.109047 3.422432
v -9.539431 0.084384 4.841195
v -9.539431 0.084384 3.422432
v -9.539431 1.109047 3.422432
v -9.539431 1.109047 4.841195
v -11.746396 0.084384 3.422432
v -11.746396 0.084384 4.841195
v -11.746396 1.109047 4.841195
v -11.746396 1.109047 3.422432
v -9.822178 0.903195 4.920015
v -11.463572 0.903195 4.920015
v -11.463572 0.084384 4.920015
v -9.822178 0.084384 4.920015
v -9.822178 0.903195 4.841195
v -11.463572 0.903195 4.841195
v -11.463572 0.084384 4.841195
v -9.822178 0.084384 4.841195
v -9.822178 0.084384 3.343611
v -11.463572 0.084384 3.343611
v -11.463572 0.936078 3.343612
v -9.822178 0.936078 3.343612
v -9.822178 0.084384 3.422432
v -11.463572 0.084384 3.422432
v -11.463572 0.936078 3.422432
v -9.822178 0.936078 3.422432
v -9.945524 1.056582 3.346983
v -9.945524 1.178523 3.346983
v -9.945524 1.142808 3.260757
v -9.945524 1.056582 3.225042
v -9.945524 0.970357 3.260757
v -9.945524 0.934641 3.346983
v -10.521609 1.056582 3.346983
v -10.521609 1.178523 3.346983
v -10.521609 1.142808 3.260757
v -10.521609 1.056582 3.225042
v -10.521609 0.970357 3.260757
v -10.521609 0.934641 3.346983
v -10.787534 1.056582 3.346983
v -10.787534 1.178523 3.346983
v -10.787534 1.142808 3.260757
v -10.787534 1.056582 3.225042
v -10.787534 0.970357 3.260757
v -10.787534 0.934641 3.346983
v -11.363619 1.056582 3.346983
v -11.363619 1.178523 3.346983
v -11.363619 1.142808 3.260757
v -11.363619 1.056582 3.225042
v -11.363619 0.970357 3.260757
v -11.363619 0.934641 3.346983
v -10.712549 0.905119 4.998983
v -10.576691 0.905119 4.998983
v -10.576691 1.187867 4.998983
v -10.712549 1.187867 4.998983
v -10.600183 0.952394 4.998983
v -10.600183 1.140591 4.998983
v -10.689056 1.140591 4.998983
v -10.689056 0.952394 4.998983
v -10.600183 0.952394 4.920536
v -10.600183 1.140591 4.920536
v -10.689056 1.140591 4.920536
v -10.689056 0.952394 4.920536
vt 0.282913 0.342133
vt 0.282913 0.302124
vt 0.504356 0.302368
vt 0.504356 0.341896
vt 0.020470 0.302368
vt 0.241989 0.302124
vt 0.241989 0.342133
vt 0.020470 0.342133
vt 0.900803 0.773361
vt 0.900803 0.939621
vt 0.861275 0.939621
vt 0.861275 0.773361
vt 0.523540 0.623535
vt 0.523540 0.823036
vt 0.379456 0.823036
vt 0.379456 0.623535
vt 0.901031 0.588333
vt 0.901031 0.754593
vt 0.861275 0.754593
vt 0.861275 0.588333
vt 0.708572 0.588341
vt 0.708572 0.787842
vt 0.564487 0.787842
vt 0.564487 0.588341
vt 0.282913 0.049149
vt 0.504356 0.049393
vt 0.741707 0.569557
vt 0.564491 0.569557
vt 0.564491 0.360916
vt 0.741707 0.360916
vt 0.727341 0.588341
vt 0.842484 0.588341
vt 0.842484 0.819145
vt 0.727341 0.819145
vt 0.352966 0.632660
vt 0.352966 0.798920
vt 0.312958 0.798920
vt 0.312958 0.632660
vt 0.839005 0.240196
vt 0.719242 0.240196
vt 0.719242 0.009392
vt 0.839005 0.009392
vt 0.282913 0.009392
vt 0.504356 0.009392
vt 0.020470 0.009392
vt 0.241989 0.009392
vt 0.241989 0.049149
vt 0.020470 0.049393
vt 0.897789 0.009384
vt 0.897789 0.175644
vt 0.857788 0.175644
vt 0.857788 0.009384
vt 0.009392 0.341896
vt 0.009392 0.302368
vt 0.545715 0.372002
vt 0.379456 0.371994
vt 0.379456 0.360916
vt 0.545715 0.360916
vt 0.515427 0.302368
vt 0.515427 0.341896
vt 0.324036 0.817703
vt 0.324036 0.983963
vt 0.312958 0.983963
vt 0.312958 0.817703
vt 0.253059 0.009392
vt 0.253059 0.049149
vt 0.534208 0.242142
vt 0.700460 0.242142
vt 0.700460 0.253227
vt 0.534208 0.253227
vt 0.271843 0.049149
vt 0.271843 0.009392
vt 0.979530 0.972666
vt 0.979530 0.806414
vt 0.990612 0.806414
vt 0.990612 0.972666
vt 0.271843 0.342133
vt 0.271843 0.302124
vt 0.379456 0.593666
vt 0.545715 0.593666
vt 0.545715 0.604752
vt 0.379456 0.604752
vt 0.253059 0.302124
vt 0.253059 0.342133
vt 0.949665 0.972672
vt 0.949665 0.806412
vt 0.960747 0.806412
vt 0.960747 0.972672
vt 0.515427 0.009392
vt 0.515427 0.049393
vt 0.700460 0.020470
vt 0.534208 0.020470
vt 0.534208 0.009392
vt 0.700460 0.009392
vt 0.009392 0.049393
vt 0.009392 0.009392
vt 0.342819 0.983963
vt 0.342819 0.817703
vt 0.353897 0.817703
vt 0.353897 0.983963
vt 0.179337 0.899853
vt 0.179337 0.860096
vt 0.190414 0.860096
vt 0.190414 0.899853
vt 0.622604 0.272007
vt 0.633675 0.272007
vt 0.633675 0.292915
vt 0.699463 0.272011
vt 0.699463 0.311768
vt 0.688385 0.311768
vt 0.688385 0.272011
vt 0.592751 0.272007
vt 0.603828 0.272007
vt 0.603828 0.292915
vt 0.042618 0.071320
vt 0.042618 0.279961
vt 0.219833 0.071320
vt 0.219833 0.279961
vt 0.161171 0.841316
vt 0.161171 0.632675
vt 0.294172 0.632675
vt 0.294172 0.841316
vt 0.760485 0.538250
vt 0.760485 0.360916
vt 0.893486 0.360916
vt 0.893486 0.538250
vt 0.009390 0.841316
vt 0.009390 0.632675
vt 0.142391 0.632675
vt 0.142391 0.841316
vt 0.697495 0.806622
vt 0.697495 0.983955
vt 0.564491 0.983955
vt 0.564491 0.806622
vt 0.689377 0.231064
vt 0.689377 0.031555
vt 0.545292 0.231064
vt 0.545292 0.031555
vt 0.390549 0.383080
vt 0.390549 0.582588
vt 0.534637 0.383080
vt 0.534637 0.582588
vt 0.971977 0.506813
vt 0.971977 0.307446
vt 0.983055 0.307446
vt 0.983055 0.506813
vt 0.798401 0.837921
vt 0.798401 0.982010
vt 0.787323 0.982010
vt 0.787323 0.837921
vt 0.976524 0.208687
vt 0.976524 0.009392
vt 0.987602 0.009392
vt 0.987602 0.208687
vt 0.757462 0.982010
vt 0.757462 0.837921
vt 0.768539 0.837921
vt 0.768539 0.982010
vt 0.957741 0.009392
vt 0.957497 0.208759
vt 0.946419 0.208759
vt 0.946419 0.009392
vt 0.738434 0.837921
vt 0.738678 0.982010
vt 0.727356 0.982010
vt 0.727356 0.837921
vt 0.960991 0.588341
vt 0.960991 0.787636
vt 0.949669 0.787636
vt 0.949669 0.588341
vt 0.857788 0.338501
vt 0.857788 0.194412
vt 0.869110 0.194412
vt 0.869110 0.338501
vt 0.009390 0.613892
vt 0.009390 0.360916
vt 0.049419 0.372238
vt 0.049419 0.603050
vt 0.175642 0.360916
vt 0.164558 0.372238
vt 0.175642 0.613892
vt 0.164558 0.603050
vt 0.930885 0.588341
vt 0.930885 0.819145
vt 0.919815 0.819145
vt 0.919815 0.588341
vt 0.482216 0.956955
vt 0.482216 0.841812
vt 0.493294 0.841812
vt 0.493294 0.956955
vt 0.927643 0.009392
vt 0.927643 0.240196
vt 0.916565 0.240196
vt 0.916565 0.009392
vt 0.463425 0.841812
vt 0.463425 0.956955
vt 0.452347 0.956955
vt 0.452347 0.841812
vt 0.360674 0.360916
vt 0.360674 0.613892
vt 0.349590 0.602806
vt 0.349590 0.371994
vt 0.194422 0.613892
vt 0.229828 0.602806
vt 0.194422 0.360916
vt 0.229828 0.371994
vt 0.912270 0.538246
vt 0.912270 0.307442
vt 0.923344 0.307442
vt 0.923344 0.538246
vt 0.930885 0.837921
vt 0.930885 0.957687
vt 0.919804 0.957687
vt 0.919804 0.837921
vt 0.942123 0.538246
vt 0.942123 0.307442
vt 0.953194 0.307442
vt 0.953194 0.538246
vt 0.433567 0.841816
vt 0.433567 0.961578
vt 0.422485 0.961578
vt 0.422485 0.841816
vt 0.088699 0.877239
vt 0.088699 0.894386
vt 0.076576 0.889364
vt 0.071556 0.877239
vt 0.076576 0.865114
vt 0.088699 0.860092
vt 0.789463 0.339986
vt 0.772316 0.339986
vt 0.772316 0.258979
vt 0.789463 0.258979
vt 0.052773 0.941100
vt 0.040474 0.941100
vt 0.040474 0.860093
vt 0.052773 0.860093
vt 0.379456 0.841820
vt 0.391581 0.841820
vt 0.391581 0.922829
vt 0.379456 0.922829
vt 0.403706 0.841820
vt 0.403706 0.922829
vt 0.512077 0.841820
vt 0.524414 0.841820
vt 0.524414 0.922829
vt 0.512077 0.922829
vt 0.806610 0.339986
vt 0.806610 0.258979
vt 0.160553 0.877243
vt 0.160553 0.894390
vt 0.148430 0.889366
vt 0.143410 0.877243
vt 0.148430 0.865116
vt 0.160553 0.860096
vt 0.124626 0.877239
vt 0.124626 0.894386
vt 0.112503 0.889364
vt 0.107483 0.877239
vt 0.112503 0.865114
vt 0.124626 0.860092
vt 0.736389 0.339989
vt 0.719242 0.339989
vt 0.719242 0.258980
vt 0.736389 0.258980
vt 0.021690 0.941101
vt 0.009392 0.941101
vt 0.009392 0.860092
vt 0.021690 0.860092
vt 0.817183 0.837926
vt 0.829308 0.837926
vt 0.829308 0.918934
vt 0.817183 0.918934
vt 0.841433 0.837926
vt 0.841433 0.918934
vt 0.825390 0.258979
vt 0.837727 0.258979
vt 0.837727 0.339987
vt 0.825390 0.339987
vt 0.753536 0.339989
vt 0.753536 0.258980
vt 0.669601 0.289158
vt 0.669601 0.306305
vt 0.657478 0.301281
vt 0.652458 0.289158
vt 0.657478 0.277031
vt 0.669601 0.272011
vt 0.573967 0.272007
vt 0.567322 0.296219
vt 0.540855 0.296219
vt 0.534210 0.272007
vt 0.534210 0.332926
vt 0.534210 0.312019
vt 0.540855 0.308716
vt 0.573967 0.292915
vt 0.573967 0.312019
vt 0.567322 0.308716
vt 0.534210 0.292915
vt 0.250038 0.860096
vt 0.250038 0.886559
vt 0.239006 0.886559
vt 0.239006 0.860096
vt 0.771500 0.557032
vt 0.771500 0.569529
vt 0.760483 0.569529
vt 0.760483 0.557032
vt 0.209198 0.886559
vt 0.209198 0.860096
vt 0.220230 0.860096
vt 0.220230 0.886559
vt 0.652458 0.337578
vt 0.652458 0.325081
vt 0.663483 0.325081
vt 0.663483 0.337578
vt 0.573967 0.332926
vt 0.603828 0.312019
vt 0.592751 0.332926
vt 0.603828 0.332926
vt 0.633675 0.312019
vt 0.633675 0.332926
vt 0.622604 0.332926
vn 0.0000 -1.0000 -0.0000
vn 0.0000 1.0000 0.0000
vn 0.0000 0.0000 1.0000
vn 1.0000 0.0000 0.0000
vn 0.0000 0.0000 -1.0000
vn -1.0000 0.0000 0.0000
vn -0.9999 -0.0007 0.0108
vn -1.0000 0.0000 0.0011
vn -1.0000 -0.0015 0.0000
vn 0.0000 0.9239 -0.3827
vn 0.0000 0.3827 -0.9239
vn 0.0000 -0.3827 -0.9239
vn 0.0000 -0.9239 -0.3827
usemtl Chest_1
s off
f 3/1/1 11/2/1 12/3/1 1/4/1
f 9/5/2 10/6/2 7/7/2 5/8/2
f 20/9/3 17/10/3 18/11/3 19/12/3
f 57/13/4 58/14/4 59/15/4 60/16/4
f 24/17/5 21/18/5 22/19/5 23/20/5
f 61/21/6 62/22/6 63/23/6 64/24/6
f 15/25/1 16/26/1 12/3/1 11/2/1
f 46/27/2 47/28/2 48/29/2 45/30/2
f 72/31/3 69/32/3 70/33/3 71/34/3
f 26/35/5 27/36/5 28/37/5 25/38/5
f 78/39/5 79/40/5 80/41/5 77/42/5
f 4/43/1 2/44/1 16/26/1 15/25/1
f 6/45/2 8/46/2 14/47/2 13/48/2
f 30/49/3 31/50/3 32/51/3 29/52/3
f 9/5/2 5/8/2 18/53/2 17/54/2
f 5/55/7 1/56/7 19/57/7 18/58/7
f 1/4/1 12/3/1 20/59/1 19/60/1
f 12/61/4 9/62/4 17/63/4 20/64/4
f 14/47/2 8/46/2 22/65/2 21/66/2
f 8/67/4 4/68/4 23/69/4 22/70/4
f 4/43/1 15/25/1 24/71/1 23/72/1
f 15/73/6 14/74/6 21/75/6 24/76/6
f 11/2/1 3/1/1 26/77/1 25/78/1
f 3/79/6 7/80/6 27/81/6 26/82/6
f 7/7/2 10/6/2 28/83/2 27/84/2
f 10/85/4 11/86/4 25/87/4 28/88/4
f 16/26/1 2/44/1 30/89/1 29/90/1
f 2/91/4 6/92/4 31/93/4 30/94/4
f 6/45/2 13/48/2 32/95/2 31/96/2
f 13/97/6 16/98/6 29/99/6 32/100/6
f 37/101/6 38/102/6 34/103/6 33/104/6
f 39/105/1 35/106/1 106/107/1
f 39/108/4 40/109/4 36/110/4 35/111/4
f 37/112/2 33/113/2 108/114/2
f 9/5/2 13/48/2 42/115/2 41/116/2
f 13/48/2 14/47/2 43/117/2 42/115/2
f 14/47/2 10/6/2 44/118/2 43/117/2
f 10/6/2 9/5/2 41/116/2 44/118/2
f 41/119/5 42/120/5 46/121/5 45/122/5
f 42/123/6 43/124/6 47/125/6 46/126/6
f 43/127/3 44/128/3 48/129/3 47/130/3
f 44/131/4 41/132/4 45/133/4 48/134/4
f 2/91/4 4/68/4 50/135/4 49/136/4
f 4/68/4 8/67/4 51/137/4 50/135/4
f 8/67/4 6/92/4 52/138/4 51/137/4
f 6/92/4 2/91/4 49/136/4 52/138/4
f 3/79/8 1/56/8 54/139/8 53/140/8
f 1/56/9 5/55/9 55/141/9 54/139/9
f 5/55/6 7/80/6 56/142/6 55/141/6
f 7/80/6 3/79/6 53/140/6 56/142/6
f 49/143/2 50/144/2 58/145/2 57/146/2
f 50/147/3 51/148/3 59/149/3 58/150/3
f 51/151/1 52/152/1 60/153/1 59/154/1
f 52/155/5 49/156/5 57/157/5 60/158/5
f 53/159/2 54/160/2 62/161/2 61/162/2
f 54/163/5 55/164/5 63/165/5 62/166/5
f 55/167/1 56/168/1 64/169/1 63/170/1
f 56/171/3 53/172/3 61/173/3 64/174/3
f 13/175/3 9/176/3 66/177/3 65/178/3
f 9/176/3 12/179/3 67/180/3 66/177/3
f 12/179/3 16/181/3 68/182/3 67/180/3
f 16/181/3 13/175/3 65/178/3 68/182/3
f 65/183/1 66/184/1 70/185/1 69/186/1
f 66/187/4 67/188/4 71/189/4 70/190/4
f 67/191/2 68/192/2 72/193/2 71/194/2
f 68/195/6 65/196/6 69/197/6 72/198/6
f 15/199/5 11/200/5 74/201/5 73/202/5
f 11/200/5 10/203/5 75/204/5 74/201/5
f 10/203/5 14/205/5 76/206/5 75/204/5
f 14/205/5 15/199/5 73/202/5 76/206/5
f 73/207/2 74/208/2 78/209/2 77/210/2
f 74/211/4 75/212/4 79/213/4 78/214/4
f 75/215/1 76/216/1 80/217/1 79/218/1
f 76/219/6 73/220/6 77/221/6 80/222/6
f 81/223/4 86/224/4 85/225/4 84/226/4 83/227/4 82/228/4
f 81/229/3 82/230/3 88/231/3 87/232/3
f 82/233/10 83/234/10 89/235/10 88/236/10
f 83/237/11 84/238/11 90/239/11 89/240/11
f 84/238/12 85/241/12 91/242/12 90/239/12
f 85/243/13 86/244/13 92/245/13 91/246/13
f 86/247/3 81/229/3 87/232/3 92/248/3
f 87/249/6 88/250/6 89/251/6 90/252/6 91/253/6 92/254/6
f 93/255/4 98/256/4 97/257/4 96/258/4 95/259/4 94/260/4
f 93/261/3 94/262/3 100/263/3 99/264/3
f 94/265/10 95/266/10 101/267/10 100/268/10
f 95/269/11 96/270/11 102/271/11 101/272/11
f 96/270/12 97/273/12 103/274/12 102/271/12
f 97/275/13 98/276/13 104/277/13 103/278/13
f 98/279/3 93/261/3 99/264/3 104/280/3
f 99/281/6 100/282/6 101/283/6 102/284/6 103/285/6 104/286/6
f 36/287/3 110/288/3 109/289/3 35/290/3
f 34/291/3 105/292/3 112/293/3
f 107/294/3 108/295/3 111/296/3 110/288/3
f 105/292/3 106/297/3 109/289/3 112/293/3
f 109/298/6 110/299/6 114/300/6 113/301/6
f 110/302/1 111/303/1 115/304/1 114/305/1
f 111/306/4 112/307/4 116/308/4 115/309/4
f 112/310/2 109/311/2 113/312/2 116/313/2
f 36/287/3 107/294/3 110/288/3
f 111/296/3 108/295/3 33/314/3
f 111/296/3 33/314/3 34/291/3 112/293/3
f 109/289/3 106/297/3 35/290/3
f 108/114/2 107/315/2 40/316/2 37/112/2
f 107/315/2 36/317/2 40/316/2
f 105/318/1 34/319/1 38/320/1
f 105/318/1 38/320/1 39/105/1 106/107/1
