# Blender v2.93.1 OBJ File: 'land.blend'
# www.blender.org
mtllib land.mtl
o Cube
v 5.657302 2.833853 -3.530068
v 5.254957 2.493651 -3.279011
v 5.293202 2.833853 3.417243
v 5.254957 2.493651 3.279011
v -5.657302 2.833853 -3.530068
v -5.254957 2.493651 -3.279011
v -5.456596 2.833853 3.368029
v -5.254957 2.493651 3.279011
v -5.657302 2.493651 -3.530068
v -5.456596 2.493651 3.368029
v 5.657302 2.493651 -3.530068
v 5.293202 2.493651 3.417243
v -5.017786 2.227637 -3.131020
v -5.017786 2.227637 3.131020
v 5.017786 2.295318 -3.131020
v 5.017786 2.295318 3.131020
v -5.254957 2.227637 -3.279011
v -5.254957 2.227637 3.279011
v 5.254957 2.295318 -3.279011
v 5.254957 2.295318 3.279011
v -4.738867 1.663865 -2.956979
v -4.738867 1.663865 2.956979
v 4.738867 1.857743 -2.956979
v 4.738867 1.857743 2.956979
v -4.934726 1.663865 -3.131020
v -4.934726 1.663865 3.131020
v 4.938931 1.857743 -3.131020
v 4.938931 1.857743 3.131020
v -4.248720 1.316927 -2.651134
v -4.248720 1.316927 2.651134
v 4.248720 1.111718 -2.651134
v 4.248720 1.111718 2.651134
v -4.573806 1.316927 -2.956979
v -4.573806 1.316927 2.956979
v 4.525669 1.111718 -2.956979
v 4.525669 1.111718 2.956979
v -3.537689 0.788226 -2.207463
v -3.537689 0.788226 2.207463
v 3.537689 0.866264 -2.207463
v 3.537689 0.866264 2.207463
v -3.975309 0.788226 -2.651134
v -3.975309 0.788226 2.651134
v 4.039627 0.866264 -2.651134
v 4.039627 0.866264 2.651134
v -3.289296 0.551041 -1.675457
v -3.289296 0.551041 1.808035
v 2.956823 0.551041 -1.675457
v 2.956823 0.551041 1.808035
v -0.118935 2.493651 -3.713327
v -0.118935 2.833853 3.378723
v -0.118935 2.493651 3.378723
v -0.118935 2.833853 -3.713327
v -0.110477 2.493651 -3.279011
v -0.110477 2.493651 3.279011
v -0.110477 2.260766 -3.279011
v -0.110477 2.260766 3.279011
v -0.105490 2.260766 -3.131020
v -0.105490 2.260766 3.131020
v -0.101686 1.758766 -3.131020
v -0.101686 1.758766 3.131020
v -0.099627 1.758766 -2.956979
v -0.099627 1.758766 2.956979
v -0.119719 1.216480 -2.956979
v -0.119719 1.216480 2.956979
v -0.089322 1.216480 -2.651134
v -0.089322 1.216480 2.651134
v -0.052092 0.826425 -2.651134
v -0.052091 0.826425 2.651134
v -0.074374 0.826425 -2.207463
v -0.074374 0.826425 2.207463
v -0.231894 0.551041 -1.675457
v -0.231894 0.551041 1.808035
v 3.101573 2.493651 3.656711
v 3.101573 2.833853 -3.359766
v 2.880990 2.493651 3.279011
v 2.880990 2.280030 3.279011
v 2.750963 2.280030 3.131020
v 2.708681 1.813950 3.131020
v 2.598048 1.813950 2.956979
v 2.470290 1.158071 2.956979
v 2.329328 1.158071 2.651134
v 2.229222 0.848637 2.651134
v 1.939511 0.848637 2.207463
v 1.545957 0.551041 1.808035
v 3.101573 2.493651 -3.359766
v 3.101573 2.833853 3.656711
v 2.880990 2.493651 -3.279011
v 2.880990 2.280030 -3.279011
v 2.750963 2.280030 -3.131020
v 2.708681 1.813950 -3.131020
v 2.598048 1.813950 -2.956979
v 2.470290 1.158071 -2.956979
v 2.329328 1.158071 -2.651134
v 2.229222 0.848637 -2.651134
v 1.939511 0.848637 -2.207463
v 1.545957 0.551041 -1.675457
v -5.579659 2.493651 -1.196948
v 5.780509 2.833853 -1.196948
v -5.579659 2.833853 -1.196948
v 5.780509 2.493651 -1.196948
v -5.254957 2.493651 -1.111821
v 5.254957 2.493651 -1.111821
v -5.254957 2.227637 -1.111821
v 5.254957 2.295318 -1.111821
v -5.017786 2.227637 -1.061642
v 5.017786 2.295318 -1.061642
v -4.934726 1.663865 -1.061642
v 4.938931 1.857743 -1.061642
v -4.738867 1.663865 -1.002629
v 4.738867 1.857743 -1.002629
v -4.573806 1.316927 -1.002629
v 4.525669 1.111718 -1.002629
v -4.248720 1.316927 -0.898926
v 4.248720 1.111718 -0.898926
v -3.975309 0.788226 -0.898926
v 4.039627 0.866264 -0.898926
v -3.537689 0.788226 -0.748489
v 3.537689 0.866264 -0.748489
v -3.289296 0.551041 -0.524288
v 2.956823 0.551041 -0.524288
v -0.231894 0.551041 -0.524288
v -0.118935 2.833853 -1.369661
v 3.101573 2.833853 -1.041073
v 1.545957 0.551041 -0.524288
v -5.688558 2.493651 1.337289
v 5.570379 2.833853 1.337289
v -5.254957 2.493651 1.242181
v -5.254957 2.227637 1.242181
v -5.017786 2.227637 1.186118
v -4.934726 1.663865 1.186118
v -4.738867 1.663865 1.120186
v -4.573806 1.316927 1.120186
v -4.248720 1.316927 1.004324
v -3.975309 0.788226 1.004324
v -3.537689 0.788226 0.836249
v -3.289296 0.551041 0.726112
v -0.231894 0.551041 0.726112
v -0.118935 2.833853 1.176031
v 3.101573 2.833853 1.477492
v 1.545957 0.551041 0.726112
v -5.688558 2.833853 1.337289
v 5.570379 2.493651 1.337289
v 5.254957 2.493651 1.242181
v 5.254957 2.295318 1.242181
v 5.017786 2.295318 1.186118
v 4.938931 1.857743 1.186118
v 4.738867 1.857743 1.120187
v 4.525669 1.111718 1.120187
v 4.248720 1.111718 1.004324
v 4.039627 0.866264 1.004324
v 3.537689 0.866264 0.836249
v 2.956823 0.551041 0.726112
vt 0.080172 0.558607
vt 0.115563 0.558607
vt 0.115563 0.581063
vt 0.080172 0.581063
vt 0.700222 0.323710
vt 0.627924 0.323710
vt 0.627925 0.288319
vt 0.700223 0.288319
vt 0.700221 0.471036
vt 0.627923 0.471036
vt 0.627923 0.447142
vt 0.700221 0.447142
vt 0.786742 0.469336
vt 0.786742 0.447142
vt 0.843274 0.447142
vt 0.843274 0.469336
vt 0.706746 0.065716
vt 0.634452 0.065716
vt 0.634452 0.043260
vt 0.706746 0.043260
vt 0.627925 0.661936
vt 0.700220 0.661936
vt 0.700220 0.678268
vt 0.627926 0.678268
vt 0.112849 0.691014
vt 0.112849 0.670155
vt 0.115415 0.667583
vt 0.115415 0.690040
vt 0.080042 0.737315
vt 0.112849 0.737315
vt 0.115415 0.739886
vt 0.080096 0.739886
vt 0.060965 0.670155
vt 0.045826 0.670155
vt 0.043260 0.667583
vt 0.059558 0.667583
vt 0.045826 0.715121
vt 0.045826 0.737315
vt 0.043260 0.739886
vt 0.043260 0.715993
vt 0.369845 0.295518
vt 0.401266 0.302420
vt 0.401266 0.422231
vt 0.370293 0.402199
vt 0.205340 0.815239
vt 0.205340 0.794380
vt 0.247486 0.794380
vt 0.247486 0.815239
vt 0.843270 0.657958
vt 0.843270 0.673128
vt 0.801123 0.673126
vt 0.797875 0.657956
vt 0.843275 0.322605
vt 0.843275 0.355480
vt 0.786743 0.355481
vt 0.793783 0.322607
vt 0.358507 0.689778
vt 0.338590 0.689778
vt 0.337074 0.688265
vt 0.357933 0.688265
vt 0.402719 0.721554
vt 0.402719 0.689778
vt 0.404235 0.688265
vt 0.404235 0.721522
vt 0.338590 0.740032
vt 0.338590 0.754695
vt 0.337074 0.756208
vt 0.337074 0.740861
vt 0.381527 0.754695
vt 0.402719 0.754695
vt 0.404235 0.756208
vt 0.382041 0.756208
vt 0.062071 0.201814
vt 0.043260 0.201814
vt 0.043260 0.043261
vt 0.062071 0.043261
vt 0.504995 0.163077
vt 0.483803 0.163077
vt 0.483803 0.043260
vt 0.504995 0.043260
vt 0.356992 0.601745
vt 0.337074 0.601745
vt 0.337074 0.508751
vt 0.356992 0.508751
vt 0.057760 0.419055
vt 0.043260 0.422240
vt 0.044176 0.329257
vt 0.058469 0.320013
vt 0.795601 0.766037
vt 0.776790 0.766037
vt 0.775008 0.764788
vt 0.794926 0.764788
vt 0.837355 0.796911
vt 0.837355 0.766037
vt 0.839138 0.764788
vt 0.839138 0.796898
vt 0.776790 0.814864
vt 0.776790 0.829111
vt 0.775008 0.830387
vt 0.775008 0.815570
vt 0.817341 0.829111
vt 0.837355 0.829111
vt 0.839138 0.830387
vt 0.817945 0.830387
vt 0.515158 0.310076
vt 0.541402 0.288319
vt 0.541402 0.400690
vt 0.516209 0.392962
vt 0.383683 0.052684
vt 0.397282 0.043260
vt 0.397282 0.201799
vt 0.384064 0.192063
vt 0.219817 0.180507
vt 0.190345 0.160085
vt 0.192034 0.086368
vt 0.220679 0.065267
vt 0.647937 0.838530
vt 0.627923 0.838530
vt 0.627923 0.764789
vt 0.647937 0.764789
vt 0.846435 0.063257
vt 0.846435 0.046392
vt 0.848508 0.043260
vt 0.848508 0.062071
vt 0.821274 0.100693
vt 0.846435 0.100693
vt 0.848508 0.103825
vt 0.821468 0.103825
vt 0.806643 0.046392
vt 0.795033 0.046392
vt 0.793267 0.043260
vt 0.805744 0.043260
vt 0.795033 0.082748
vt 0.795033 0.100693
vt 0.793267 0.103825
vt 0.793267 0.083811
vt 0.240341 0.490970
vt 0.250554 0.487225
vt 0.246855 0.554295
vt 0.237839 0.554295
vt 0.214198 0.400704
vt 0.196253 0.400704
vt 0.196253 0.288328
vt 0.214198 0.288328
vt 0.095441 0.863842
vt 0.095441 0.880707
vt 0.043261 0.880707
vt 0.043261 0.863842
vt 0.499897 0.565169
vt 0.487787 0.555130
vt 0.489934 0.502997
vt 0.501559 0.499431
vt 0.386456 0.861314
vt 0.386456 0.847272
vt 0.389246 0.842728
vt 0.389246 0.859593
vt 0.363851 0.892485
vt 0.386456 0.892485
vt 0.389246 0.897029
vt 0.363709 0.897029
vt 0.350706 0.847272
vt 0.340275 0.847272
vt 0.337074 0.842728
vt 0.348859 0.842728
vt 0.340275 0.877544
vt 0.340275 0.892485
vt 0.337074 0.897029
vt 0.337074 0.879084
vt 0.786088 0.947742
vt 0.786088 0.956740
vt 0.775008 0.956740
vt 0.775008 0.947743
vt 0.519271 0.694562
vt 0.541402 0.702680
vt 0.539807 0.753132
vt 0.520270 0.753132
vt 0.511130 0.890076
vt 0.496189 0.890076
vt 0.501637 0.839653
vt 0.513426 0.839653
vt 0.219382 0.707860
vt 0.205340 0.707860
vt 0.209430 0.640816
vt 0.220510 0.640816
vt 0.506402 0.689841
vt 0.508909 0.753132
vt 0.786088 0.916907
vt 0.786088 0.936405
vt 0.775008 0.936405
vt 0.775008 0.916907
vt 0.363851 0.847272
vt 0.363709 0.842728
vt 0.350706 0.892485
vt 0.348859 0.897029
vt 0.541402 0.599574
vt 0.515158 0.577819
vt 0.516209 0.494938
vt 0.541402 0.487210
vt 0.205340 0.503808
vt 0.227471 0.495691
vt 0.226479 0.554295
vt 0.206941 0.554295
vt 0.821274 0.046392
vt 0.821468 0.043260
vt 0.806643 0.100693
vt 0.805744 0.103825
vt 0.236954 0.192383
vt 0.237335 0.052998
vt 0.337074 0.084982
vt 0.366545 0.064559
vt 0.367407 0.179794
vt 0.338762 0.158695
vt 0.499897 0.322727
vt 0.501559 0.388468
vt 0.776790 0.796911
vt 0.775008 0.796898
vt 0.837355 0.814864
vt 0.839138 0.815570
vt 0.107453 0.408139
vt 0.076031 0.415041
vt 0.076479 0.308365
vt 0.107453 0.288334
vt 0.338590 0.721554
vt 0.337074 0.721522
vt 0.402719 0.740032
vt 0.404235 0.740861
vt 0.843275 0.303489
vt 0.797877 0.303491
vt 0.843270 0.605968
vt 0.843270 0.638842
vt 0.793781 0.638840
vt 0.786741 0.605965
vt 0.351574 0.291504
vt 0.352283 0.390551
vt 0.080042 0.670155
vt 0.080096 0.667583
vt 0.060965 0.737315
vt 0.059558 0.739886
vt 0.627923 0.605965
vt 0.700217 0.605965
vt 0.700219 0.641357
vt 0.627924 0.641357
vt 0.700221 0.344290
vt 0.627923 0.344290
vt 0.059592 0.558607
vt 0.059592 0.581063
vt 0.043260 0.558607
vt 0.043260 0.581063
vt 0.700221 0.360622
vt 0.627923 0.360622
vt 0.337074 0.288319
vt 0.337990 0.381307
vt 0.843275 0.288319
vt 0.801126 0.288320
vt 0.487787 0.332767
vt 0.489934 0.384902
vt 0.250554 0.201807
vt 0.250554 0.043261
vt 0.496189 0.686095
vt 0.499893 0.753132
vt 0.810682 0.936405
vt 0.810682 0.947743
vt 0.798893 0.947742
vt 0.798893 0.936405
vt 0.043260 0.508760
vt 0.059592 0.508760
vt 0.059592 0.532654
vt 0.043260 0.532654
vt 0.080172 0.508760
vt 0.080172 0.532654
vt 0.810682 0.916907
vt 0.798893 0.916907
vt 0.250553 0.707860
vt 0.235612 0.707860
vt 0.233316 0.640816
vt 0.245105 0.640816
vt 0.527360 0.890076
vt 0.526232 0.839653
vt 0.810682 0.956740
vt 0.798893 0.956740
vt 0.340275 0.861314
vt 0.337074 0.859593
vt 0.386456 0.877544
vt 0.389246 0.879084
vt 0.095441 0.826407
vt 0.095441 0.844351
vt 0.043261 0.844351
vt 0.043261 0.826407
vt 0.233689 0.400704
vt 0.233689 0.288328
vt 0.795033 0.063257
vt 0.793267 0.062071
vt 0.846435 0.082748
vt 0.848508 0.083811
vt 0.669677 0.838530
vt 0.669677 0.764789
vt 0.795601 0.829111
vt 0.794926 0.830387
vt 0.817341 0.766037
vt 0.817945 0.764788
vt 0.401203 0.601745
vt 0.380011 0.601745
vt 0.380011 0.508751
vt 0.401203 0.508751
vt 0.528014 0.163077
vt 0.528014 0.043260
vt 0.103825 0.201814
vt 0.083811 0.201814
vt 0.083811 0.043261
vt 0.103825 0.043261
vt 0.358507 0.754695
vt 0.357933 0.756208
vt 0.381527 0.689778
vt 0.382041 0.688265
vt 0.205340 0.861541
vt 0.205340 0.839346
vt 0.247486 0.839346
vt 0.247486 0.861541
vt 0.045826 0.691014
vt 0.043260 0.690040
vt 0.112849 0.715121
vt 0.115415 0.715993
vt 0.706746 0.115563
vt 0.634452 0.115563
vt 0.634452 0.091669
vt 0.706746 0.091669
vt 0.786742 0.493444
vt 0.843274 0.493444
vt 0.700221 0.496989
vt 0.627923 0.496989
vt 0.115563 0.508760
vt 0.115563 0.532654
vt 0.700221 0.519445
vt 0.627923 0.519445
vt 0.786742 0.514303
vt 0.843274 0.514303
vt 0.547932 0.163077
vt 0.547932 0.043260
vt 0.688488 0.838530
vt 0.688488 0.764789
vt 0.250554 0.400704
vt 0.250554 0.288328
vt 0.541402 0.890076
vt 0.537312 0.839653
vn 0.0000 1.0000 0.0000
vn -0.0020 0.0000 1.0000
vn -0.9994 0.0000 0.0333
vn -1.0000 0.0000 0.0000
vn 0.9912 0.0000 0.1321
vn -0.0665 0.0000 -0.9978
vn 0.0000 -1.0000 0.0000
vn -0.0000 0.0000 1.0000
vn 1.0000 0.0000 0.0000
vn -0.0000 0.0000 -1.0000
vn 0.0066 -1.0000 -0.0054
vn 0.0066 -0.9999 -0.0082
vn 0.9615 -0.2748 0.0000
vn -0.9893 -0.1458 0.0000
vn 0.9841 -0.1774 0.0000
vn 0.0200 -0.9997 -0.0114
vn 0.0200 -0.9996 -0.0179
vn -0.9030 -0.4296 0.0000
vn -0.0233 -0.9996 0.0135
vn -0.0233 -0.9996 0.0159
vn 0.0051 -0.8685 -0.4956
vn -0.8883 -0.4593 0.0000
vn 0.7612 -0.6485 0.0000
vn 0.0103 -0.9999 -0.0048
vn 0.0103 -0.9999 -0.0092
vn 0.0049 -0.8414 0.5404
vn -0.6906 -0.7232 0.0000
vn 0.4770 -0.8789 0.0000
vn 0.0048 -0.8141 0.5807
vn 0.0103 -0.9999 0.0048
vn 0.0103 -0.9999 0.0036
vn 0.0053 -0.9007 -0.4344
vn -0.0233 -0.9996 -0.0135
vn -0.0233 -0.9997 -0.0042
vn 0.0200 -0.9997 0.0114
vn 0.0200 -0.9998 0.0062
vn 0.0066 -1.0000 0.0054
vn 0.0066 -1.0000 0.0028
vn -0.0331 0.0000 -0.9995
vn -0.0860 0.0000 0.9963
vn 0.1086 0.0000 0.9941
vn 0.0066 -0.9999 0.0082
vn 0.0200 -0.9996 0.0179
vn -0.0233 -0.9996 -0.0159
vn 0.0103 -0.9999 0.0092
vn 0.0047 -0.7962 0.6051
vn 0.0103 -0.9999 -0.0036
vn 0.0052 -0.8816 -0.4721
vn -0.0233 -0.9997 0.0042
vn 0.0200 -0.9998 -0.0062
vn 0.0066 -1.0000 -0.0028
vn 0.1091 0.0000 -0.9940
vn 0.9986 0.0000 -0.0527
vn -0.9991 0.0000 -0.0429
vn -0.9935 0.0000 0.1135
vn 0.9966 -0.0000 0.0826
usemtl Material
s off
f 138/1/1 141/2/1 7/3/1 50/4/1
f 51/5/2 50/6/2 7/7/2 10/8/2
f 97/9/3 99/10/3 5/11/3 9/12/3
f 101/13/4 6/14/4 17/15/4 103/16/4
f 142/17/5 126/18/5 3/19/5 12/20/5
f 85/21/6 74/22/6 1/23/6 11/24/6
f 127/25/7 8/26/7 10/27/7 125/28/7
f 53/29/7 6/30/7 9/31/7 49/32/7
f 75/33/7 4/34/7 12/35/7 73/36/7
f 102/37/7 2/38/7 11/39/7 100/40/7
f 58/41/8 14/42/8 26/43/8 60/44/8
f 143/45/9 4/46/9 20/47/9 144/48/9
f 87/49/10 2/50/10 19/51/10 88/52/10
f 54/53/8 8/54/8 18/55/8 56/56/8
f 129/57/7 14/58/7 18/59/7 128/60/7
f 57/61/11 13/62/11 17/63/11 55/64/11
f 77/65/12 16/66/12 20/67/12 76/68/12
f 106/69/7 15/70/7 19/71/7 104/72/7
f 147/73/13 24/74/13 36/75/13 148/76/13
f 105/77/14 13/78/14 25/79/14 107/80/14
f 145/81/15 16/82/15 28/83/15 146/84/15
f 89/85/10 15/86/10 27/87/10 90/88/10
f 131/89/7 22/90/7 26/91/7 130/92/7
f 61/93/16 21/94/16 25/95/16 59/96/16
f 79/97/17 24/98/17 28/99/17 78/100/17
f 110/101/7 23/102/7 27/103/7 108/104/7
f 66/105/8 30/106/8 42/107/8 68/108/8
f 91/109/10 23/110/10 35/111/10 92/112/10
f 62/113/8 22/114/8 34/115/8 64/116/8
f 109/117/18 21/118/18 33/119/18 111/120/18
f 133/121/7 30/122/7 34/123/7 132/124/7
f 65/125/19 29/126/19 33/127/19 63/128/19
f 81/129/20 32/130/20 36/131/20 80/132/20
f 114/133/7 31/134/7 35/135/7 112/136/7
f 95/137/21 39/138/21 47/139/21 96/140/21
f 113/141/22 29/142/22 41/143/22 115/144/22
f 149/145/23 32/146/23 44/147/23 150/148/23
f 93/149/10 31/150/10 43/151/10 94/152/10
f 135/153/7 38/154/7 42/155/7 134/156/7
f 69/157/24 37/158/24 41/159/24 67/160/24
f 83/161/25 40/162/25 44/163/25 82/164/25
f 118/165/7 39/166/7 43/167/7 116/168/7
f 140/169/7 152/170/7 48/171/7 84/172/7
f 70/173/26 38/174/26 46/175/26 72/176/26
f 117/177/27 37/178/27 45/179/27 119/180/27
f 151/181/28 40/182/28 48/183/28 152/184/28
f 83/185/29 70/173/29 72/176/29 84/186/29
f 136/187/7 137/188/7 72/189/7 46/190/7
f 38/154/30 70/191/30 68/192/30 42/155/30
f 95/193/31 69/157/31 67/160/31 94/194/31
f 29/195/10 65/196/10 67/197/10 41/198/10
f 37/199/32 69/200/32 71/201/32 45/202/32
f 30/122/33 66/203/33 64/204/33 34/123/33
f 93/205/34 65/125/34 63/128/34 92/206/34
f 79/207/8 62/113/8 64/116/8 80/208/8
f 21/209/10 61/210/10 63/211/10 33/212/10
f 81/213/8 66/105/8 68/108/8 82/214/8
f 22/90/35 62/215/35 60/216/35 26/91/35
f 91/217/36 61/93/36 59/96/36 90/218/36
f 13/219/10 57/220/10 59/221/10 25/222/10
f 14/58/37 58/223/37 56/224/37 18/59/37
f 89/225/38 57/61/38 55/64/38 88/226/38
f 75/227/8 54/53/8 56/56/8 76/228/8
f 6/229/10 53/230/10 55/231/10 17/232/10
f 77/233/8 58/41/8 60/44/8 78/234/8
f 8/26/7 54/235/7 51/236/7 10/27/7
f 87/237/7 53/29/7 49/32/7 85/238/7
f 9/239/39 5/240/39 52/241/39 49/242/39
f 73/243/40 86/244/40 50/6/40 51/5/40
f 139/245/1 138/1/1 50/4/1 86/246/1
f 126/247/1 139/245/1 86/246/1 3/248/1
f 12/249/41 3/250/41 86/244/41 73/243/41
f 2/38/7 87/237/7 85/238/7 11/39/7
f 16/251/8 77/233/8 78/234/8 28/252/8
f 4/253/8 75/227/8 76/228/8 20/254/8
f 15/70/42 89/225/42 88/226/42 19/71/42
f 23/102/43 91/217/43 90/218/43 27/103/43
f 32/255/8 81/213/8 82/214/8 44/256/8
f 24/257/8 79/207/8 80/208/8 36/258/8
f 31/134/44 93/205/44 92/206/44 35/135/44
f 39/166/45 95/193/45 94/194/45 43/167/45
f 40/259/46 83/185/46 84/186/46 48/260/46
f 137/188/7 140/169/7 84/172/7 72/189/7
f 70/191/47 83/161/47 82/164/47 68/192/47
f 65/196/10 93/149/10 94/152/10 67/197/10
f 69/200/48 95/137/48 96/140/48 71/201/48
f 66/203/49 81/129/49 80/132/49 64/204/49
f 61/210/10 91/109/10 92/112/10 63/211/10
f 62/215/50 79/97/50 78/100/50 60/216/50
f 57/220/10 89/85/10 90/88/10 59/221/10
f 58/223/51 77/65/51 76/68/51 56/224/51
f 53/230/10 87/49/10 88/52/10 55/231/10
f 54/235/7 75/33/7 73/36/7 51/236/7
f 49/242/52 52/241/52 74/22/52 85/21/52
f 71/261/7 96/262/7 124/263/7 121/264/7
f 1/265/1 74/266/1 123/267/1 98/268/1
f 74/266/1 52/269/1 122/270/1 123/267/1
f 45/271/7 71/261/7 121/264/7 119/272/7
f 39/273/28 118/274/28 120/275/28 47/276/28
f 135/277/27 117/177/27 119/180/27 136/278/27
f 96/262/7 47/279/7 120/280/7 124/263/7
f 151/281/7 118/165/7 116/168/7 150/282/7
f 37/158/7 117/283/7 115/284/7 41/159/7
f 31/285/23 114/286/23 116/287/23 43/288/23
f 133/289/22 113/141/22 115/144/22 134/290/22
f 149/291/7 114/133/7 112/136/7 148/292/7
f 29/126/7 113/293/7 111/294/7 33/127/7
f 131/295/18 109/117/18 111/120/18 132/296/18
f 147/297/7 110/101/7 108/104/7 146/298/7
f 21/94/7 109/299/7 107/300/7 25/95/7
f 15/301/15 106/302/15 108/303/15 27/304/15
f 129/305/14 105/77/14 107/80/14 130/306/14
f 23/307/13 110/308/13 112/309/13 35/310/13
f 145/311/7 106/69/7 104/72/7 144/312/7
f 13/62/7 105/313/7 103/314/7 17/63/7
f 2/315/9 102/316/9 104/317/9 19/318/9
f 143/319/7 102/37/7 100/40/7 142/320/7
f 6/30/7 101/321/7 97/322/7 9/31/7
f 11/323/53 1/324/53 98/325/53 100/326/53
f 127/327/4 101/13/4 103/16/4 128/328/4
f 125/329/54 141/330/54 99/10/54 97/9/54
f 52/269/1 5/331/1 99/332/1 122/270/1
f 10/333/55 7/334/55 141/330/55 125/329/55
f 8/335/4 127/327/4 128/328/4 18/336/4
f 4/34/7 143/319/7 142/320/7 12/35/7
f 16/66/7 145/311/7 144/312/7 20/67/7
f 14/337/14 129/305/14 130/306/14 26/338/14
f 24/98/7 147/297/7 146/298/7 28/99/7
f 22/339/18 131/295/18 132/296/18 34/340/18
f 32/130/7 149/291/7 148/292/7 36/131/7
f 30/341/22 133/289/22 134/290/22 42/342/22
f 40/162/7 151/281/7 150/282/7 44/163/7
f 38/343/27 135/277/27 136/278/27 46/344/27
f 121/264/7 124/263/7 140/169/7 137/188/7
f 98/268/1 123/267/1 139/245/1 126/247/1
f 123/267/1 122/270/1 138/1/1 139/245/1
f 119/272/7 121/264/7 137/188/7 136/187/7
f 118/274/28 151/181/28 152/184/28 120/275/28
f 124/263/7 120/280/7 152/170/7 140/169/7
f 117/283/7 135/153/7 134/156/7 115/284/7
f 114/286/23 149/145/23 150/148/23 116/287/23
f 113/293/7 133/121/7 132/124/7 111/294/7
f 109/299/7 131/89/7 130/92/7 107/300/7
f 106/302/15 145/81/15 146/84/15 108/303/15
f 110/308/13 147/73/13 148/76/13 112/309/13
f 105/313/7 129/57/7 128/60/7 103/314/7
f 102/316/9 143/45/9 144/48/9 104/317/9
f 101/321/7 127/25/7 125/28/7 97/322/7
f 100/326/56 98/325/56 126/18/56 142/17/56
f 122/270/1 99/332/1 141/2/1 138/1/1
