# Blender v2.93.1 OBJ File: ''
# www.blender.org
mtllib rocks 1.mtl
o Stone_2_Mesh.023
v 1.711720 0.000000 -11.485588
v 1.761394 -0.000000 -11.838313
v 1.487421 -0.000001 -12.520408
v 0.909537 -0.000001 -12.707352
v -0.068623 0.000001 -10.117979
v -0.674713 -0.000001 -12.118502
v -0.715027 0.000001 -9.816731
v -1.126228 0.000000 -10.167942
v -0.993388 -0.000000 -11.059350
v -1.022951 -0.000000 -11.578499
v 1.282314 1.776017 -11.482378
v 1.085458 1.996548 -11.810325
v 0.888602 1.996548 -12.138270
v 0.691746 1.996547 -12.466217
v 0.714320 1.776017 -11.112275
v 0.518007 2.082666 -11.367662
v 0.320392 2.965586 -11.797193
v 0.122557 2.382293 -12.256111
v 0.147160 1.776017 -10.630845
v -0.050962 1.996548 -11.128166
v -0.247818 1.996548 -11.456113
v -0.444674 1.996547 -11.784060
v -0.233211 1.776017 -10.643965
v -0.619172 1.776017 -10.787087
v -0.722055 1.590239 -11.115737
v -1.012884 1.776017 -11.442980
v 1.282314 0.859850 -11.482378
v 1.085458 0.859850 -11.810324
v 1.261320 0.859850 -12.141057
v 0.691746 0.859849 -12.466216
v 0.122359 0.859849 -12.282592
v -0.654389 0.859849 -11.966324
v -1.012884 0.859850 -11.442980
v -0.816028 0.859850 -11.115033
v -0.704473 0.859850 -10.786449
v -0.421378 0.859850 -10.333725
v 0.147487 0.859850 -10.587106
v 0.878361 0.859850 -10.776099
v 0.869860 0.000001 -9.444413
v 2.352069 0.000000 -11.061383
v 1.941409 0.535065 -11.105411
v 1.233873 0.759147 -10.510319
v 0.392702 0.648378 -10.134387
v 0.006938 0.000001 -9.426243
v 0.518064 2.965586 -11.359991
v 0.847174 2.965586 -11.708622
v 0.765607 2.965586 -12.137351
v 0.692313 2.965586 -12.390409
v 0.124659 3.387010 -11.974871
v -0.132633 3.221500 -11.729850
v -0.247818 2.965586 -11.456114
v 0.160428 2.965586 -11.267500
v 0.829187 -0.000001 -13.061731
v 0.033385 -0.000001 -12.870633
v -0.849761 -0.000001 -12.596518
v -0.779885 0.799049 -12.274539
v 0.001051 1.032920 -12.627470
v 0.101760 1.617804 -12.534652
v 0.525932 1.722001 -12.810043
v 0.575957 0.951656 -12.825260
v -0.485224 0.681638 -9.845896
v -0.138204 0.000001 -9.422304
v -0.074091 0.000001 -10.087908
v -0.535536 0.000001 -9.856052
v -0.844722 0.000001 -9.457982
v 1.861500 1.650744 -11.836385
v 1.473903 0.792033 -11.833487
v 1.840078 1.032578 -11.295321
v 2.425642 1.224373 -11.349963
v 2.419474 1.421788 -12.174853
v 1.831989 1.032578 -12.377067
v 1.797326 0.000000 -11.501608
v 2.429847 0.000000 -11.299730
v 2.787934 0.000000 -11.843311
v 2.421758 -0.000000 -12.381476
v 1.792328 -0.000000 -12.170163
vt 0.000000 0.000000
vt 0.333333 0.000000
vt 0.333333 0.333333
vt 0.000000 0.333333
vt 0.333333 0.000000
vt 0.666667 0.000000
vt 0.666667 0.333333
vt 0.333333 0.333333
vt 1.000000 0.000000
vt 1.000000 0.333333
vt 0.333333 0.666667
vt 0.000000 0.666667
vt 0.666667 0.666667
vt 0.333333 0.666667
vt 1.000000 0.666667
vt 0.333333 1.000000
vt 0.000000 1.000000
vt 0.666667 0.666667
vt 0.666667 1.000000
vt 1.000000 0.666667
vt 1.000000 1.000000
vt 0.000000 0.000000
vt 0.333333 0.000000
vt 0.333333 0.500000
vt 0.000000 0.500000
vt 0.666667 0.000000
vt 0.666667 0.500000
vt 1.000000 0.000000
vt 1.000000 0.500000
vt 0.333333 1.000000
vt 0.000000 1.000000
vt 0.666667 1.000000
vt 1.000000 1.000000
vt 0.000000 0.000000
vt 0.333333 0.000000
vt 0.333333 0.500000
vt 0.000000 0.500000
vt 0.666667 0.000000
vt 0.666667 0.500000
vt 0.666667 0.000000
vt 1.000000 0.000000
vt 1.000000 0.500000
vt 0.666667 0.500000
vt 0.333333 1.000000
vt 0.000000 1.000000
vt 0.333333 0.500000
vt 0.666667 1.000000
vt 0.333333 1.000000
vt 0.000000 0.000000
vt 0.333333 0.000000
vt 0.333333 0.500000
vt 0.000000 0.500000
vt 0.666667 0.000000
vt 0.666667 0.500000
vt 1.000000 0.000000
vt 1.000000 0.500000
vt 0.333333 1.000000
vt 0.000000 1.000000
vt 0.666667 1.000000
vt 1.000000 1.000000
vt 0.000000 0.000000
vt 0.333333 0.000000
vt 0.333333 0.500000
vt 0.000000 0.500000
vt 0.333333 0.000000
vt 0.666667 0.000000
vt 0.666667 0.500000
vt 0.333333 0.500000
vt 1.000000 0.000000
vt 1.000000 0.500000
vt 0.333333 1.000000
vt 0.666667 0.500000
vt 0.666667 1.000000
vt 1.000000 0.500000
vt 1.000000 1.000000
vt 1.000000 0.000000
vt 0.666667 0.000000
vt 1.000000 0.000000
vt 1.000000 0.333333
vt 0.000000 1.000000
vt 0.000000 0.500000
vt 0.000000 0.000000
vt 0.625000 1.000000
vt 0.500000 0.500000
vt 0.750000 0.500000
vt 0.875000 1.000000
vt 1.000000 0.500000
vt 0.125000 1.000000
vt 0.000000 0.500000
vt 0.250000 0.500000
vt 0.375000 1.000000
vt 0.600000 1.000000
vt 0.500000 0.647584
vt 0.700000 0.647584
vt 0.800000 1.000000
vt 0.900000 0.647584
vt 0.000000 1.000000
vt -0.100000 0.647584
vt 0.100000 0.647584
vt 0.200000 1.000000
vt 0.300000 0.647584
vt 0.400000 1.000000
vt 0.400000 0.352416
vt 0.600000 0.352416
vt 0.800000 0.352416
vt -0.200000 0.352416
vt 0.000000 0.352416
vt 0.200000 0.352416
vn 0.3893 0.7985 0.4592
vn -0.0000 1.0000 -0.0000
vn 0.5745 0.7349 0.3602
vn 0.2351 0.8497 0.4719
vn 0.4134 0.5385 0.7343
vn -0.0792 0.9181 0.3884
vn -0.5180 0.8554 -0.0056
vn -0.2435 0.8703 0.4280
vn 0.8262 0.5343 -0.1787
vn 0.8740 0.4785 -0.0847
vn 0.3738 0.3986 -0.8375
vn 0.8574 -0.0000 -0.5147
vn 0.9863 0.1617 -0.0314
vn 0.6449 0.1067 -0.7568
vn -0.2573 0.1919 -0.9471
vn -0.3727 0.2805 -0.8845
vn -0.8281 0.1067 -0.5504
vn -0.4280 0.0877 -0.8995
vn -0.5258 0.1077 -0.8437
vn -0.6928 0.1337 -0.7086
vn -0.9619 0.0929 0.2571
vn -0.9462 0.3232 -0.0165
vn -0.6065 0.5982 0.5238
vn -0.7951 0.0456 0.6048
vn -0.9538 0.1041 0.2818
vn -0.6487 0.2204 0.7284
vn 0.3857 0.3703 0.8451
vn 0.0996 0.7586 0.6439
vn 0.6342 0.5164 0.5755
vn 0.2422 0.1600 0.9569
vn 0.4477 0.2199 0.8667
vn 0.7292 0.1861 0.6585
vn 0.5539 0.3110 -0.7723
vn 0.3223 0.9398 0.1134
vn 0.0615 0.9332 0.3541
vn -0.7687 0.5550 0.3180
vn 0.6634 0.0412 0.7471
vn 0.9214 0.1897 -0.3390
vn 0.9043 0.0738 -0.4205
vn -0.3831 0.1649 -0.9089
vn -0.7160 0.2014 -0.6684
vn -0.9728 0.1337 0.1889
vn -0.6442 0.1245 0.7546
vn 0.3348 0.0287 0.9419
vn -0.9314 -0.0523 0.3601
vn -0.0643 0.9792 0.1926
vn -0.9813 0.0363 0.1893
vn -0.2463 0.5302 -0.8113
vn 0.9255 0.0273 -0.3779
vn 0.9293 0.2989 -0.2170
vn 0.8661 0.4928 0.0834
vn -0.4485 0.0464 -0.8926
vn -0.7880 0.0673 -0.6120
vn -0.0433 0.5113 0.8583
vn -0.8352 0.3783 0.3992
vn -0.1451 0.6545 0.7420
vn 0.4740 0.8571 0.2016
vn -0.1789 0.6526 -0.7363
vn -0.8411 0.3783 -0.3866
vn -0.9268 -0.3755 0.0069
vn -0.2994 -0.1750 0.9380
vn 0.8348 0.0254 0.5499
vn 0.8239 0.0828 -0.5606
vn -0.3134 -0.1750 -0.9334
vn -0.8061 -0.0837 0.5859
vn 0.0795 0.0411 0.9960
vn 0.9633 0.2626 0.0556
vn 0.2380 0.1401 -0.9611
vn -0.8147 -0.0837 -0.5737
usemtl Stone
s off
f 11/1/1 12/2/1 16/3/1 15/4/1
f 46/5/2 47/6/2 17/7/2 45/8/2
f 47/6/3 48/9/3 49/10/3 17/7/3
f 15/4/4 16/3/4 20/11/4 19/12/4
f 45/8/2 17/7/2 51/13/2 52/14/2
f 17/7/5 49/10/5 50/15/5 51/13/5
f 19/12/6 20/11/6 24/16/6 23/17/6
f 20/11/7 21/18/7 25/19/7 24/16/7
f 21/18/8 22/20/8 26/21/8 25/19/8
f 1/22/9 2/23/9 28/24/9 27/25/9
f 2/23/10 3/26/10 29/27/10 28/24/10
f 3/26/11 4/28/11 30/29/11 29/27/11
f 27/25/12 28/24/12 12/30/12 11/31/12
f 28/24/13 29/27/13 13/32/13 12/30/13
f 29/27/14 30/29/14 14/33/14 13/32/14
f 53/34/15 54/35/15 57/36/15 60/37/15
f 54/35/16 55/38/16 56/39/16 57/36/16
f 6/40/17 10/41/17 33/42/17 32/43/17
f 60/37/18 57/36/18 58/44/18 59/45/18
f 31/46/19 32/43/19 22/47/19 18/48/19
f 32/43/20 33/42/20 26/21/20 22/47/20
f 10/49/21 9/50/21 34/51/21 33/52/21
f 9/50/22 8/53/22 35/54/22 34/51/22
f 8/53/23 7/55/23 36/56/23 35/54/23
f 33/52/24 34/51/24 25/57/24 26/58/24
f 34/51/25 35/54/25 24/59/25 25/57/25
f 35/54/26 36/56/26 23/60/26 24/59/26
f 7/61/27 5/62/27 37/63/27 36/64/27
f 44/65/28 39/66/28 42/67/28 43/68/28
f 39/66/29 40/69/29 41/70/29 42/67/29
f 36/64/30 37/63/30 19/71/30 23/17/30
f 37/63/31 38/72/31 15/73/31 19/71/31
f 38/72/32 27/74/32 11/75/32 15/73/32
f 1/76/33 27/74/33 41/70/33 40/69/33
f 27/74/34 38/72/34 42/67/34 41/70/34
f 38/72/35 37/63/35 43/68/35 42/67/35
f 37/63/36 5/62/36 44/65/36 43/68/36
f 16/3/37 12/2/37 46/5/37 45/8/37
f 12/2/38 13/77/38 47/6/38 46/5/38
f 13/77/39 14/78/39 48/9/39 47/6/39
f 14/78/40 18/79/40 49/10/40 48/9/40
f 18/79/41 22/20/41 50/15/41 49/10/41
f 22/20/42 21/18/42 51/13/42 50/15/42
f 21/18/43 20/11/43 52/14/43 51/13/43
f 20/11/44 16/3/44 45/8/44 52/14/44
f 6/40/45 32/43/45 56/39/45 55/38/45
f 32/43/46 31/46/46 57/36/46 56/39/46
f 31/46/47 18/48/47 58/44/47 57/36/47
f 18/48/48 14/80/48 59/45/48 58/44/48
f 14/80/49 30/81/49 60/37/49 59/45/49
f 30/81/50 4/82/50 53/34/50 60/37/50
f 61/83/51 62/84/51 63/85/51
f 61/86/52 63/85/52 64/87/52
f 61/88/53 64/89/53 65/90/53
f 61/91/54 65/90/54 62/84/54
f 66/92/55 67/93/55 68/94/55
f 66/95/56 68/94/56 69/96/56
f 66/97/57 69/98/57 70/99/57
f 66/100/58 70/99/58 71/101/58
f 66/102/59 71/101/59 67/93/59
f 67/93/60 76/103/60 72/104/60
f 68/94/61 72/104/61 73/105/61
f 69/98/62 73/106/62 74/107/62
f 70/99/63 74/107/63 75/108/63
f 71/101/64 75/108/64 76/103/64
f 72/104/65 68/94/65 67/93/65
f 73/105/66 69/96/66 68/94/66
f 74/107/67 70/99/67 69/98/67
f 75/108/68 71/101/68 70/99/68
f 76/103/69 67/93/69 71/101/69
